<?xml version="1.0" encoding="iso-8859-1"?>
<!-- Uploaded to: SVG Repo, www.svgrepo.com, Generator: SVG Repo Mixer Tools -->
<svg height="800px" width="800px" version="1.1" id="Layer_1" xmlns="http://www.w3.org/2000/svg" xmlns:xlink="http://www.w3.org/1999/xlink" 
	 viewBox="0 0 496.2 496.2" xml:space="preserve">
<path style="fill:#4ABC96;" d="M248.1,0C111.1,0,0,111.1,0,248.1s111.1,248.1,248.1,248.1s248.1-111.1,248.1-248.1S385.1,0,248.1,0z
	"/>
<path style="fill:#FFFFFF;" d="M418.5,382.8c-8.5-27.3-81.2-49.3-170.8-49.3s-161.5,22-170,49.3c-2.6,8.5-5.5,22.2-8.3,37.4
	c45.1,46.9,108.5,76,178.7,76s133.6-29.2,178.7-76C424.1,405,421.2,391.2,418.5,382.8z"/>
<path style="fill:#263A44;" d="M248.1,327.1c-23.7,0-51.5,5.3-51.5,5.3v19.2h103v-19.2C299.6,332.4,271.8,327.1,248.1,327.1z"/>
<g>
	<path style="fill:#8E502E;" d="M247.7,333.4c-18.8,0-36.8,1-53.6,2.7l54,95l52.5-95C284,334.4,266.2,333.4,247.7,333.4z"/>
	<path style="fill:#8E502E;" d="M287,282.1h-77.8c12.1,36.6,1,53.3,1,53.3l26.9,6.1h22l26.9-6.1C286,335.4,274.9,318.7,287,282.1z"
		/>
</g>
<g>
	<path style="fill:#9B5C32;" d="M248.1,61.6c-48.7,0-88.3,21.2-88.3,113.6c0,31.3,6.2,55.8,15.5,74.7c20.4,41.6,33.8,56.1,72.8,56.1
		s52.4-14.5,72.8-56.1c9.3-18.9,15.5-43.4,15.5-74.7C336.4,82.8,296.8,61.6,248.1,61.6z"/>
	<path style="fill:#9B5C32;" d="M161.4,178c-8.4,1.4-14.9,5.1-10.1,32.9s10.7,29.1,19.1,27.7L161.4,178z"/>
	<path style="fill:#9B5C32;" d="M334.9,178l-9,60.6c8.4,1.4,14.3,0.1,19.1-27.7C349.7,183.1,343.3,179.5,334.9,178z"/>
</g>
<path style="fill:#844A2C;" d="M261.4,257.4c-3.8-0.5-13.3,3.1-13.3,3.1s-9.6-3.6-13.5-3c-6.1,0.9-15.2,5.7-15.2,7.3
	c0,2.7,12.8,10.1,28.7,10.1s28.7-7.4,28.7-10.1C276.8,264.8,267.6,258.3,261.4,257.4z"/>
<path style="fill:#7A4229;" d="M248.1,266.2c-17,0-28.7-1.4-28.7-1.4c0,2.7,12.8,13.2,28.7,13.2s28.7-10.5,28.7-13.2
	C276.8,264.8,265.1,266.2,248.1,266.2z"/>
<g>
	<path style="fill:#3A1D12;" d="M248.1,59.1c-58,0-88.3,23.7-88.3,116.1l38.8-68.4c0,0,27.5,4.3,49.5,4.3s46.2-4.3,46.2-4.3
		l42.1,68.4C336.4,82.8,306.1,59.1,248.1,59.1z"/>
	<circle style="fill:#3A1D12;" cx="183.6" cy="131.3" r="11.5"/>
	<circle style="fill:#3A1D12;" cx="199.7" cy="132" r="11.5"/>
	<circle style="fill:#3A1D12;" cx="215.8" cy="133.3" r="11.5"/>
	<circle style="fill:#3A1D12;" cx="232" cy="133.8" r="11.5"/>
	<circle style="fill:#3A1D12;" cx="248.1" cy="135.4" r="11.5"/>
	<circle style="fill:#3A1D12;" cx="264.2" cy="133.8" r="11.5"/>
	<circle style="fill:#3A1D12;" cx="280.4" cy="133.3" r="11.5"/>
	<circle style="fill:#3A1D12;" cx="296.5" cy="132" r="11.5"/>
	<circle style="fill:#3A1D12;" cx="312.6" cy="131.3" r="11.5"/>
	<path style="fill:#3A1D12;" d="M180.1,138.6l-14.6,2.2c-4.2,10.9-5.6,24.4-5.6,37.5c0,0,8.8-1.9,8.8,2.6l2.8,27.6l3.9-1.9
		C175,183.6,180.1,138.6,180.1,138.6z"/>
</g>
<path style="fill:#191919;" d="M159.3,95.1l4.3,29.7c0,0,30.5,8.9,84.5,8.9s84.2-8.9,84.2-8.9l4.3-29.7H159.3z"/>
<path style="fill:#FFFFFF;" d="M346.9,56.1c0,0-38.2-17.3-99-17.3s-98.6,17.3-98.6,17.3s-10.5,10.5-2,25c0.3,0.5,0.6,1,0.9,1.4
	c4.6,6.8,11.1,12.6,11.1,12.6s49.8,1,88.8,1s88.8-1,88.8-1s6.3-5.5,10.9-12.3c0.4-0.6,0.8-1.1,1.1-1.7
	C357.4,66.6,346.9,56.1,346.9,56.1z"/>
<path style="fill:#3A1D12;" d="M330.8,140.8l-15.7-4.9c0,0,6.2,47.8,6,70.8l3.9,1.9l2.8-27.6c0-4.5,8.8-2.6,8.8-2.6
	C336.5,165.1,335.1,151.7,330.8,140.8z"/>
<path style="fill:#2A3F49;" d="M311.5,337.4L311.5,337.4L311.5,337.4L311.5,337.4z"/>
<path style="fill:#FFFFFF;" d="M248.1,448.9l-29.7,45.5c9.7,1.2,19.6,1.8,29.7,1.8c10,0,19.9-0.6,29.7-1.8L248.1,448.9z"/>
<path style="fill:#334D5C;" d="M357.3,341.1l-57.7-8.7l-1.1,3.5l-50.4,92l-50.4-92.1l-1.1-3.4l-57.7,8.7l99.5,98.4l-59.6,46.9
	c12.8,3.7,26,6.4,39.6,8l29.7-45.5c0,0-6.7-14.7,0-14.7l0,0l0,0c6.7,0,0,14.7,0,14.7l0,0l29.7,45.5c13.6-1.6,26.8-4.3,39.6-8
	l-59.6-46.9L357.3,341.1z"/>
</svg>