<?xml version="1.0" encoding="iso-8859-1"?>
<!-- Uploaded to: SVG Repo, www.svgrepo.com, Generator: SVG Repo Mixer Tools -->
<svg height="800px" width="800px" version="1.1" id="Layer_1" xmlns="http://www.w3.org/2000/svg" xmlns:xlink="http://www.w3.org/1999/xlink" 
	 viewBox="0 0 496.2 496.2" xml:space="preserve">
<path style="fill:#4ABC96;" d="M248.1,0C111.1,0,0,111.1,0,248.1s111.1,248.1,248.1,248.1s248.1-111.1,248.1-248.1S385.1,0,248.1,0z
	"/>
<path style="fill:#FFFFFF;" d="M394.8,382.8c-7.3-27.3-69.9-49.3-147.1-49.3s-139.1,22.1-146.4,49.3c-3.3,12.2-7,35.2-10.1,57.5
	c42.7,34.9,97.4,55.9,156.9,55.9s114.1-21,156.9-55.9C401.8,417.9,398.1,394.9,394.8,382.8z"/>
<path style="fill:#263A44;" d="M248.1,327.1c-23.7,0-55.4,6.2-55.4,6.2l1.4,2.9l106.5-0.1l1.7-3.1
	C302.3,333,271.8,327.1,248.1,327.1z"/>
<path style="fill:#334D5C;" d="M357.3,345.9l-54.9-12.8l-1.7,3.1l-52.6,91.7l-53.9-91.8l-1.4-2.9L139,345.8l99.4,93.8L179,486.4
	c12.8,3.7,26,6.4,39.6,8l29.7-45.5c0,0-6.7-14.7,0-14.7l0,0l0,0c6.7,0,0,14.7,0,14.7l0,0l0,0l29.7,45.5c13.6-1.6,26.8-4.3,39.6-8
	l-59.4-46.8L357.3,345.9z"/>
<g>
	<path style="fill:#E2A379;" d="M247.7,333.4c-18.8,0-36.8,1-53.6,2.7l54,95l52.5-95C284,334.4,266.2,333.4,247.7,333.4z"/>
	<path style="fill:#E2A379;" d="M287,282.1h-77.8c12.1,36.6,1,53.3,1,53.3s16.8,28.1,37.6,28.1s38.2-28.1,38.2-28.1
		S274.9,318.7,287,282.1z"/>
</g>
<g>
	<path style="fill:#F2DE7C;" d="M167.7,136c-21.5,15-19.6,50.1-19.6,50.1c-30,54,29.2,76.6,29.2,76.6s32.1-1.6,70.8-1.6V147.6
		L167.7,136z"/>
	<path style="fill:#F2DE7C;" d="M348.3,186.1c-0.9-1.7,1.5-38.1-19.8-50.1l-80.2,11.6v113.5c38.7,0,70.8,1.6,70.8,1.6
		S376.5,241.1,348.3,186.1z"/>
</g>
<g>
	<path style="fill:#F4B382;" d="M248.1,61.6c-44,0-79.8,21.2-79.8,113.6c0,31.3,5.6,55.8,14,74.7c18.4,41.6,50.3,56.1,65.8,56.1
		s47.3-14.5,65.8-56.1c8.4-18.9,14-43.4,14-74.7C327.9,82.8,292.1,61.6,248.1,61.6z"/>
	<path style="fill:#F4B382;" d="M169.8,178c-7.6,1.3-13.4,4.6-9.1,29.7c4.3,25.2,9.6,26.3,17.3,25L169.8,178z"/>
	<path style="fill:#F4B382;" d="M326.5,178l-8.1,54.8c7.6,1.3,13,0.1,17.3-25C339.9,182.6,334.1,179.3,326.5,178z"/>
</g>
<path style="fill:#F2DE7C;" d="M248.1,61.6c-57.3,0-82.7,25.1-82.7,117.5l9.5-7.9c0,0,44.9-26.9,73.2-52.3l82.7,60.1
	C330.8,86.7,305.4,61.6,248.1,61.6z"/>
<path style="fill:#191919;" d="M159.3,108.4l4.3,29.7c0,0,30.5,8.9,84.5,8.9s84.2-8.9,84.2-8.9l4.3-29.7H159.3z"/>
<path style="fill:#FFFFFF;" d="M346.9,69.4c0,0-38.2-17.3-99-17.3s-98.7,17.3-98.7,17.3s-10.5,10.5-2,25c0.3,0.5,0.6,1,0.9,1.4
	c4.6,6.8,11.1,12.6,11.1,12.6s49.8,1,88.8,1s88.8-1,88.8-1s6.3-5.5,10.9-12.3c0.4-0.6,0.8-1.1,1.1-1.7
	C357.4,79.9,346.9,69.4,346.9,69.4z"/>
<path style="fill:#CC785E;" d="M258.5,257.8c-3-0.4-10.4,2.5-10.4,2.5s-7.6-2.9-10.6-2.5c-4.8,0.7-16.1,4.6-16.1,6
	c0,0,14.2,9.6,26.7,9.6c12.5,0,26.7-9.6,26.7-9.6S263.4,258.5,258.5,257.8z"/>
<path style="fill:#C16952;" d="M254.2,264.4c-2-0.1-4.5,1.7-6.1,1.7c-1.9,0-4.8-1.8-7-1.6c-13.1,0.8-19.6-0.7-19.6-0.7
	s14.2,13.5,26.7,13.5c12.5,0,26.7-13.5,26.7-13.5S267.9,265.2,254.2,264.4z"/>
<g>
	<path style="fill:#F2DE7C;" d="M174.8,183.1c-0.4-2.7-0.5-5.2-0.4-7.1c0.1-2.9,0.5-4.7,0.5-4.7l-9.4,3.5c0,1.4,0,2.9,0,4.3
		c0,0,1-0.3,2.8-0.9c-0.1,0-0.2,0.1-0.3,0.1c1.3,2.2,2.9,5.6,4.5,10.5C172.4,188.8,176.1,191.5,174.8,183.1z"/>
	<path style="fill:#F2DE7C;" d="M330.7,174.8l-9.3-3.5c0,0,0.4,1.8,0.5,4.7c0.1,2,0,4.4-0.4,7.1c-1.3,8.4,2.3,5.7,2.3,5.7
		c1.5-5,3.2-8.3,4.4-10.5c1.6,0.6,2.5,0.8,2.5,0.8C330.8,177.6,330.8,176.2,330.7,174.8z"/>
</g>
</svg>